<svg viewBox="0 0 78 78" fill="none" xmlns="http://www.w3.org/2000/svg">
<g filter="url(#filter0_d)">
<path d="M43.8092 33.499L37.0712 30.355C36.4832 30.082 36.0002 30.388 36.0002 31.039V36.961C36.0002 37.612 36.4832 37.918 37.0712 37.645L43.8062 34.501C44.3972 34.225 44.3972 33.775 43.8092 33.499ZM39.0002 5.19995C23.0942 5.19995 10.2002 18.094 10.2002 34C10.2002 49.906 23.0942 62.8 39.0002 62.8C54.9062 62.8 67.8002 49.906 67.8002 34C67.8002 18.094 54.9062 5.19995 39.0002 5.19995ZM39.0002 45.7C24.2582 45.7 24.0002 44.371 24.0002 34C24.0002 23.629 24.2582 22.3 39.0002 22.3C53.7422 22.3 54.0002 23.629 54.0002 34C54.0002 44.371 53.7422 45.7 39.0002 45.7Z" fill="white"/>
</g>
<defs>
<filter id="filter0_d" x="-1" y="-1" width="80" height="80" filterUnits="userSpaceOnUse" color-interpolation-filters="sRGB">
<feFlood flood-opacity="0" result="BackgroundImageFix"/>
<feColorMatrix in="SourceAlpha" type="matrix" values="0 0 0 0 0 0 0 0 0 0 0 0 0 0 0 0 0 0 127 0"/>
<feOffset dy="5"/>
<feGaussianBlur stdDeviation="5"/>
<feColorMatrix type="matrix" values="0 0 0 0 0 0 0 0 0 0 0 0 0 0 0 0 0 0 0.25 0"/>
<feBlend mode="normal" in2="BackgroundImageFix" result="effect1_dropShadow"/>
<feBlend mode="normal" in="SourceGraphic" in2="effect1_dropShadow" result="shape"/>
</filter>
</defs>
</svg>
