<svg viewBox="0 0 80 80" fill="none" xmlns="http://www.w3.org/2000/svg">
<g filter="url(#filter0_d)">
<path d="M49.375 35C49.375 37.4864 48.3873 39.871 46.6291 41.6291C44.871 43.3873 42.4864 44.375 40 44.375C37.5136 44.375 35.129 43.3873 33.3709 41.6291C31.6127 39.871 30.625 37.4864 30.625 35C30.625 34.4656 30.6812 33.9437 30.7781 33.4375H27.5V45.9281C27.5 46.7969 28.2031 47.5 29.0719 47.5H50.9312C51.3476 47.4992 51.7466 47.3332 52.0407 47.0385C52.3348 46.7438 52.5 46.3445 52.5 45.9281V33.4375H49.2219C49.3187 33.9437 49.375 34.4656 49.375 35V35ZM40 41.25C40.821 41.2498 41.6339 41.0879 42.3922 40.7735C43.1506 40.4592 43.8397 39.9985 44.4201 39.4179C45.0004 38.8372 45.4607 38.1479 45.7747 37.3894C46.0887 36.6308 46.2502 35.8178 46.25 34.9969C46.2498 34.1759 46.0879 33.363 45.7735 32.6046C45.4592 31.8462 44.9985 31.1572 44.4179 30.5768C43.8372 29.9964 43.1479 29.5361 42.3894 29.2221C41.6308 28.9082 40.8178 28.7467 39.9969 28.7469C38.3389 28.7473 36.7489 29.4063 35.5768 30.579C34.4047 31.7517 33.7465 33.342 33.7469 35C33.7473 36.658 34.4063 38.248 35.579 39.4201C36.7517 40.5922 38.342 41.2504 40 41.25V41.25ZM47.5 28.4375H51.2469C51.4958 28.4375 51.7346 28.3388 51.9109 28.1631C52.0872 27.9874 52.1867 27.7489 52.1875 27.5V23.7531C52.1875 23.5037 52.0884 23.2644 51.912 23.088C51.7356 22.9116 51.4963 22.8125 51.2469 22.8125H47.5C47.2505 22.8125 47.0113 22.9116 46.8349 23.088C46.6585 23.2644 46.5594 23.5037 46.5594 23.7531V27.5C46.5625 28.0156 46.9844 28.4375 47.5 28.4375V28.4375ZM40 5C32.0435 5 24.4129 8.1607 18.7868 13.7868C13.1607 19.4129 10 27.0435 10 35C10 42.9565 13.1607 50.5871 18.7868 56.2132C24.4129 61.8393 32.0435 65 40 65C43.9397 65 47.8407 64.224 51.4805 62.7164C55.1203 61.2087 58.4274 58.999 61.2132 56.2132C63.999 53.4274 66.2087 50.1203 67.7164 46.4805C69.224 42.8407 70 38.9397 70 35C70 31.0603 69.224 27.1593 67.7164 23.5195C66.2087 19.8797 63.999 16.5726 61.2132 13.7868C58.4274 11.001 55.1203 8.79125 51.4805 7.28361C47.8407 5.77597 43.9397 5 40 5V5ZM55.625 47.1531C55.625 49.0625 54.0625 50.625 52.1531 50.625H27.8469C25.9375 50.625 24.375 49.0625 24.375 47.1531V22.8469C24.375 20.9375 25.9375 19.375 27.8469 19.375H52.1531C54.0625 19.375 55.625 20.9375 55.625 22.8469V47.1531V47.1531Z" fill="white"/>
</g>
<defs>
<filter id="filter0_d" x="0" y="0" width="80" height="80" filterUnits="userSpaceOnUse" color-interpolation-filters="sRGB">
<feFlood flood-opacity="0" result="BackgroundImageFix"/>
<feColorMatrix in="SourceAlpha" type="matrix" values="0 0 0 0 0 0 0 0 0 0 0 0 0 0 0 0 0 0 127 0"/>
<feOffset dy="5"/>
<feGaussianBlur stdDeviation="5"/>
<feColorMatrix type="matrix" values="0 0 0 0 0 0 0 0 0 0 0 0 0 0 0 0 0 0 0.25 0"/>
<feBlend mode="normal" in2="BackgroundImageFix" result="effect1_dropShadow"/>
<feBlend mode="normal" in="SourceGraphic" in2="effect1_dropShadow" result="shape"/>
</filter>
</defs>
</svg>
